<svg version="1.1" id="abt-logo" xmlns="http://www.w3.org/2000/svg" xmlns:xlink="http://www.w3.org/1999/xlink" x="0px" y="0px" viewBox="0 0 316.9 138.2" style="enable-background:new 0 0 316.9 138.2;" xml:space="preserve">
  <g>
    <path class="st1" d="M316.4,0c-2.6,8.4-8.9,25.3-33.7,26.8H110.7v41.1L86.5,26.8H50.7L1.9,111.7h31l7.9-14.9H97l8.4,14.9h93
    	c15.8,0,27.9-4,27.9-22.3c0-12.9-4.7-18.9-16.8-20.4v-0.5c7.9-2,13.1-5,13.1-19.4c0-0.3,0-0.7,0-1h11c0,20.9,0,42.2,0,63.5h27.9
    	V48.2h55.4V7.4C316.9,5,316.9,2,316.4,0z M51.3,78.4l17.3-31.8l17.9,31.8H51.3z M138,47.2h49.4c4.7,0,7.9,2,7.9,7
    	c0,4.5-3.2,6.5-7.9,6.5H138V47.2z M187.4,92.3h-3.2h-35.2h-2.1c-5.3,0-8.4-1.5-8.4-6.5c0-5,3.2-6.5,8.4-6.5h1h36.3h3.2
    	c5.2,0,8.4,1.5,8.4,6.5C195.8,90.8,192.7,92.3,187.4,92.3z" style="fill: white;"/>
  </g>
  <g>
  	<path class="st0" d="M3.3,119.9v13.3H1.5v-13.3H3.3z" style="fill: white;"/>
  	<path class="st0" d="M19.9,119.9v13.3h-2.9l-6.6-9.1l-1.1-1.5l-0.5-0.7l-0.5-0.7h0l0,0.5l0,0.5v1v10H6.3v-13.3h2.9l5.8,7.9
  		l1.5,2.1l0.8,1l0.7,1h0l0-0.5l0-0.5v-1v-10.1H19.9z" style="fill: white;"/>
  	<path class="st0" d="M28.4,121.3v11.9h-1.8v-11.9h-5.2v-1.4h12.1v1.4H28.4z" style="fill: white;"/>
  	<path class="st0" d="M36.2,121.2v4.5h8v1.3h-8v5h8.4v1.3H34.5v-13.3h10.2v1.3H36.2z" style="fill: white;"/>
  	<path class="st0" d="M46.9,133.2v-13.3h7.5c1.7,0,2.9,0.3,3.6,0.8c0.7,0.6,1,1.5,1,2.9c0,1.2-0.2,2.1-0.6,2.6
  		c-0.4,0.5-1.1,0.8-2.2,0.9v0c1.7,0.1,2.5,1,2.5,2.6v3.4h-1.8v-3.1c0-1.6-0.8-2.3-2.4-2.3h-0.6h-5.4v5.4H46.9z M48.7,126.6h5.2
  		c1.4,0,2.3-0.2,2.8-0.5c0.5-0.3,0.7-1,0.7-2c0-1.2-0.2-2-0.6-2.4c-0.4-0.4-1.2-0.5-2.4-0.5h-5.8V126.6z" style="fill: white;"/>
  	<path class="st0" d="M75.2,119.9v13.3h-2.9l-6.6-9.1l-1.1-1.5l-0.5-0.7l-0.5-0.7h0l0,0.5l0,0.5v1v10h-1.8v-13.3h2.9l5.8,7.9
  		l1.5,2.1l0.8,1l0.7,1h0l0-0.5l0-0.5v-1v-10.1H75.2z" style="fill: white;"/>
  	<path class="st0" d="M88,130.4h-8l-1.2,2.8h-1.9l5.8-13.3h2.5l5.9,13.3h-1.9L88,130.4z M87.5,129.3l-3.5-8.1l-3.5,8.1H87.5z" style="fill: white;"/>
  	<path class="st0" d="M103.1,128.8h1.8v0.5c0,1.8-0.4,3-1.1,3.4c-0.7,0.5-2.6,0.7-5.5,0.7c-2.7,0-4.3-0.4-5.1-1.2
  		c-0.7-0.8-1.1-2.7-1.1-5.6c0-2.3,0.1-3.8,0.2-4.4c0.2-0.6,0.6-1.1,1.4-1.6c0.9-0.5,2.8-0.8,5.8-0.8c2,0,3.4,0.3,4.1,0.8
  		c0.7,0.5,1,1.5,1,3.1l0,0.4h-1.8l0-0.4c0-1.1-0.2-1.8-0.6-2.1c-0.4-0.3-1.3-0.5-2.8-0.5c-2.6,0-4.1,0.2-4.7,0.5
  		c-0.6,0.4-0.8,1.4-0.8,3c0,3.7,0.2,5.9,0.6,6.6c0.4,0.6,1.7,1,3.9,1c2.1,0,3.4-0.1,3.9-0.4c0.5-0.3,0.8-1,0.8-2.1L103.1,128.8z" style="fill: white;"
  		/>
  	<path class="st0" d="M108.7,119.9v13.3h-1.8v-13.3H108.7z" style="fill: white;"/>
  	<path class="st0" d="M117.5,119.8c3,0,4.9,0.4,5.6,1.1c0.8,0.7,1.1,2.6,1.1,5.5c0,3.2-0.4,5.1-1.1,5.9s-2.6,1.1-5.7,1.1
  		c-3,0-4.9-0.4-5.7-1.1c-0.7-0.7-1.1-2.6-1.1-5.7v-0.9l0-1.3c0-1.8,0.5-3,1.4-3.6C113.1,120.1,114.9,119.8,117.5,119.8z
  		 M117.5,121c-2.5,0-4,0.2-4.4,0.7c-0.4,0.5-0.6,2.1-0.6,4.8c0,2.8,0.2,4.4,0.6,4.8c0.4,0.5,1.9,0.7,4.4,0.7c2.5,0,4-0.2,4.4-0.7
  		c0.4-0.5,0.6-2.1,0.6-4.8v-0.9l0-1.3c0-1.5-0.3-2.4-0.9-2.8C121,121.2,119.7,121,117.5,121z" style="fill: white;"/>
  	<path class="st0" d="M139.8,119.9v13.3h-2.9l-6.6-9.1l-1.1-1.5l-0.5-0.7l-0.5-0.7h0l0,0.5l0,0.5v1v10h-1.8v-13.3h2.9l5.8,7.9
  		l1.5,2.1l0.8,1l0.7,1h0l0-0.5l0-0.5v-1v-10.1H139.8z" style="fill: white;"/>
  	<path class="st0" d="M152.5,130.4h-8l-1.2,2.8h-1.9l5.8-13.3h2.5l5.9,13.3h-1.9L152.5,130.4z M152,129.3l-3.5-8.1l-3.5,8.1H152z" style="fill: white;"
  		/>
  	<path class="st0" d="M159,119.9v11.9h8.1v1.4h-9.9v-13.3H159z" style="fill: white;"/>
  </g>
</svg>
